<?xml version="1.0" standalone="no"?>
<!DOCTYPE svg PUBLIC "-//W3C//DTD SVG 20010904//EN"
 "http://www.w3.org/TR/2001/REC-SVG-20010904/DTD/svg10.dtd">
<svg version="1.0" xmlns="http://www.w3.org/2000/svg"
 width="548.000000pt" height="548.000000pt" viewBox="0 0 548.000000 548.000000"
 preserveAspectRatio="xMidYMid meet">
<metadata>
Created by potrace 1.11, written by Peter Selinger 2001-2013
</metadata>
<g transform="translate(0.000000,548.000000) scale(0.100000,-0.100000)"
fill="#000000" stroke="none">
<path d="M0 2740 l0 -2740 2740 0 2740 0 0 2740 0 2740 -2740 0 -2740 0 0
-2740z m1650 1424 c239 -42 437 -149 570 -307 95 -112 158 -251 175 -382 3
-27 8 -60 11 -72 l4 -23 -179 0 -179 0 -7 48 c-3 26 -24 83 -45 127 -66 137
-183 228 -355 277 -67 18 -105 22 -230 22 -171 1 -283 -22 -390 -77 -79 -42
-164 -127 -200 -202 -27 -54 -29 -70 -30 -165 0 -93 3 -111 27 -162 50 -107
164 -192 333 -249 44 -15 196 -53 335 -84 391 -87 584 -159 725 -273 114 -91
198 -233 227 -381 19 -95 14 -295 -10 -382 -87 -322 -362 -530 -782 -590 -113
-16 -376 -16 -470 0 -265 45 -441 125 -590 267 -122 117 -207 291 -226 462
l-7 62 176 0 176 0 7 -37 c36 -201 196 -349 445 -414 128 -33 350 -38 489 -10
255 51 409 188 441 391 36 232 -95 400 -386 495 -42 13 -182 47 -313 76 -261
56 -429 107 -542 164 -282 141 -420 355 -420 651 0 428 359 747 881 782 130 9
230 5 339 -14z m2455 -47 c138 -28 256 -66 363 -117 127 -61 206 -117 303
-213 271 -269 393 -667 367 -1192 -30 -617 -345 -1062 -855 -1210 -196 -57
-213 -58 -835 -62 l-578 -4 0 1411 0 1412 578 -5 c473 -4 591 -7 657 -20z"/>
<path d="M3220 2729 l0 -1090 398 4 c394 3 398 4 489 30 226 65 382 174 499
348 79 118 139 294 164 474 15 113 13 383 -4 495 -71 464 -328 739 -760 815
-69 12 -167 15 -437 15 l-349 0 0 -1091z"/>
</g>
</svg>
